<?xml version="1.0" encoding="iso-8859-1"?>
<!-- Uploaded to: SVG Repo, www.svgrepo.com, Generator: SVG Repo Mixer Tools -->
<svg fill="#000000" height="800px" width="800px" version="1.1" id="Layer_1" xmlns="http://www.w3.org/2000/svg" xmlns:xlink="http://www.w3.org/1999/xlink" 
	 viewBox="0 0 512 512" xml:space="preserve">
<g>
	<g>
		<path d="M488.727,34.133H23.273C10.42,34.133,0,44.941,0,57.794v285.479c0,12.853,10.42,22.885,23.273,22.885h156.703v65.164
			h-31.03c-12.853,0-23.273,10.42-23.273,23.273c0,12.853,10.42,23.273,23.273,23.273h214.109c12.853,0,23.273-10.42,23.273-23.273
			c0-12.853-10.42-23.273-23.273-23.273h-31.03v-65.164h156.703c12.853,0,23.273-10.032,23.273-22.885V57.794
			C512,44.941,501.58,34.133,488.727,34.133z M285.479,431.321h-58.958v-65.164h58.958V431.321z M465.455,319.612H46.545V80.679
			h418.909V319.612z"/>
	</g>
</g>
<g>
	<g>
		<path d="M190.836,145.842h-85.333c-6.855,0-12.412,5.558-12.412,12.412v85.333c0,6.855,5.557,12.412,12.412,12.412h85.333
			c6.855,0,12.412-5.557,12.412-12.412v-85.333C203.248,151.4,197.691,145.842,190.836,145.842z"/>
	</g>
</g>
<g>
	<g>
		<path d="M403.394,211.006H262.206c-12.853,0-23.273,10.42-23.273,23.273c0,12.853,10.42,23.273,23.273,23.273h141.188
			c12.853,0,23.273-10.42,23.273-23.273C426.667,221.426,416.247,211.006,403.394,211.006z"/>
	</g>
</g>
<g>
	<g>
		<path d="M403.394,144.291H262.206c-12.853,0-23.273,10.42-23.273,23.273c0,12.853,10.42,23.273,23.273,23.273h141.188
			c12.853,0,23.273-10.42,23.273-23.273C426.667,154.711,416.247,144.291,403.394,144.291z"/>
	</g>
</g>
</svg>