<?xml version="1.0"?>
<svg width="5800" height="1280" xmlns="http://www.w3.org/2000/svg" xmlns:svg="http://www.w3.org/2000/svg" preserveAspectRatio="xMidYMid meet">
 <metadata>LibreBlog.org</metadata>
 <g class="layer">
  <g fill="#000000" id="svg_1" transform="translate(0 1280) scale(0.1 -0.1)">
   <path d="m8003.60302,11621.36325c-143.54115,-33.99042 -210.15175,-66.03852 -345.24931,-170.92322c-132.28302,-101.97124 -308.66038,-285.51947 -485.97592,-504.02927c-88.18868,-109.74048 -797.45085,-983.77967 -1576.13815,-1942.30932l-1414.77161,-1743.22261l-470.02691,-107.79817c-257.99881,-59.24043 -780.56366,-178.69245 -1159.58735,-265.12522c-379.0237,-86.43276 -709.26217,-164.12513 -732.7166,-171.89437c-183.88279,-61.18275 -262.68969,-364.183 -235.48255,-904.14499c30.02168,-587.54857 152.92293,-1255.70297 325.54758,-1770.41494c97.57046,-287.46178 216.719,-491.40426 330.23847,-560.35624c91.00322,-54.38466 38.46528,-54.38466 1189.60903,-0.97115l1054.51147,49.52888l1381.93541,-950.76041c1269.35411,-874.03919 1388.50265,-957.55849 1464.49502,-1035.25086c185.75914,-190.34631 378.08552,-279.69254 602.30994,-279.69254c299.27861,0.97115 575.10278,199.0867 816.21439,587.54856c443.75794,712.82752 773.05823,2150.13642 881.88682,3849.65707c32.83621,505.00042 34.71257,1388.75116 4.69089,1957.84779c-104.1377,1992.80936 -463.45967,3346.59895 -1005.72625,3796.24356c-88.18868,72.8366 -172.62465,121.39433 -265.50422,151.50012c-85.37415,28.16349 -271.13329,35.93273 -360.26015,14.56732l0,0.00001l0,0z" fill="#f5f5f5" id="svg_2"/>
   <path d="m10948.54209,10685.17016c253.30792,-308.82719 441.88159,-606.97167 632.33161,-1001.26046c392.15818,-813.8276 625.76437,-1773.3284 690.49862,-2835.7716c12.1963,-204.91363 12.1963,-812.85645 0,-1014.85662c-93.81775,-1543.16475 -554.46289,-2904.72358 -1283.42678,-3794.30125c-42.21798,-52.44235 -74.11602,-95.17315 -70.36331,-95.17315c14.07266,0 188.57367,101.97123 268.31876,157.32705c830.28705,572.98125 1432.59699,1790.80919 1624.92337,3280.56044c89.12686,693.40442 75.0542,1477.12623 -38.46528,2170.53066c-228.9153,1399.43386 -830.28705,2525.00211 -1631.49061,3051.36793c-61.91971,39.81734 -184.82096,110.71163 -225.16259,128.19242c-4.69089,1.94231 10.31995,-18.45194 32.83621,-46.61543l0,0l0,0.00001z" fill="#f5f5f5" id="svg_3"/>
   <path d="m9858.37987,10055.86194c236.42072,-279.69255 488.79046,-718.65445 661.41512,-1148.87596c485.97592,-1214.91448 599.4954,-2750.31 305.84585,-4127.4073c-180.13007,-846.84686 -525.37938,-1623.77059 -950.37377,-2141.39602c-81.62144,-99.05778 -81.62144,-99.05778 8.44359,-49.52889c272.07147,151.50013 518.81214,377.77916 739.28385,678.83711c393.09636,534.13506 675.48777,1283.86646 798.38902,2114.20369c106.95223,726.42368 90.06504,1481.98201 -50.66158,2204.52107c-140.72662,722.53907 -409.04538,1367.38576 -773.05823,1854.9054c-147.29387,198.11555 -371.51828,418.56766 -552.58653,542.87545c-73.17784,50.50005 -220.4717,136.93281 -234.54437,136.93281c-4.69088,0 16.8872,-29.13464 47.84705,-65.06736l0,0l0,0z" fill="#f5f5f5" id="svg_4"/>
  </g>
  <text fill="#f5f5f5" font-family="Sans-serif" font-size="720" font-style="italic" font-weight="normal" id="svg_6" stroke="#000000" stroke-dasharray="null" stroke-linecap="null" stroke-linejoin="null" stroke-width="0" text-anchor="middle" x="2197.20006" xml:space="preserve" y="901.19997">Libre</text>
  <g id="svg_17"/>
  <text fill="#f5f5f5" font-family="Sans-serif" font-size="720" font-weight="bold" id="svg_8" stroke="#000000" stroke-dasharray="null" stroke-linecap="null" stroke-linejoin="null" stroke-width="0" text-anchor="middle" x="3821.200057" xml:space="preserve" y="901.999971">Blog</text>
  <text fill="#f5f5f5" font-family="Sans-serif" font-size="580" id="svg_10" stroke="#000000" stroke-dasharray="null" stroke-linecap="null" stroke-linejoin="null" stroke-width="0" text-anchor="middle" x="5145.200037" xml:space="preserve" y="893.999973">.org</text>
 </g>
</svg>